# xmcd
#
# Track frame offsets:
#	150
#	14592
#	30474
#	45598
#	64904
#	83328
#	98220
#	115728
#	132789
#	142911
#	157588
#	175462
#	188100
#	206024
#	223935
#	241428
#	257672
#	279733
#	294191
#	311673
#
# Disc length: 4378 seconds
#
# Revision: 1
# Processed by: cddbd v1.4PL0 Copyright (c) Steve Scherf et al.
# Submitted via: audiograbber 1.82.02
#
DISCID=18111814
DTITLE=Various Artist - Hott Country 094
DYEAR=2003
DGENRE=Country
TTITLE0=Martina McBride - In My Daughter's Eyes
TTITLE1=Carolyn Dawn Johnson - Simple Life
TTITLE2=Rushlow - I Can't Be Your Friend
TTITLE3=Pat Green  - Wave On Wave
TTITLE4=Jason McCoy - Still
TTITLE5=Lorrie Morgan - Do You Still Want To Buy Me A Drink
TTITLE6=Patty Loveless - On Your Way Home
TTITLE7=Deric Ruttan - Unbeatable
TTITLE8=Marty Stuart - Too Much Month ( At The End Of The Paycheck )
TTITLE9=Scotty Emerick Feat Toby Keith - I Can't Take You Anymore
TTITLE10=Amanda Wilkinson - Gone From Love To Long
TTITLE11=Mark Wills - That's A Woman
TTITLE12=Josh Turner - Long Black Train
TTITLE13=Clay Walker - I Can't Sleep
TTITLE14=Gary Allan - Songs About Rain
TTITLE15=Darryl Worley - I Will Hold My Ground
TTITLE16=Kenny Chesney - Luchenbach Texas
TTITLE17=Kevin Denny - A Year At A time
TTITLE18=Oh Susanna Feat Kathleen Edwards - Cain Is Rising
TTITLE19=Sheryl Crow - Yhe First Cut Is The Deepest
EXTD=
EXTT0=
EXTT1=
EXTT2=
EXTT3=
EXTT4=
EXTT5=
EXTT6=
EXTT7=
EXTT8=
EXTT9=
EXTT10=
EXTT11=
EXTT12=
EXTT13=
EXTT14=
EXTT15=
EXTT16=
EXTT17=
EXTT18=
EXTT19=
PLAYORDER=
